<?xml version="1.0" encoding="utf-8"?>
<!-- Generator: Adobe Illustrator 25.3.1, SVG Export Plug-In . SVG Version: 6.00 Build 0)  -->
<svg version="1.1" id="Layer_1" xmlns="http://www.w3.org/2000/svg" xmlns:xlink="http://www.w3.org/1999/xlink" x="0px" y="0px"
	 viewBox="0 0 30.6 30.6" style="enable-background:new 0 0 30.6 30.6;" xml:space="preserve">
<style type="text/css">
	.st0{fill:#FFFFFF;}
</style>
<path id="Icon_awesome-linkedin" class="st0" d="M28.4,0H2.2C1,0,0,1,0,2.2v26.2c0,1.2,1,2.2,2.2,2.2h26.3c1.2,0,2.2-1,2.2-2.2V2.2
	C30.6,1,29.7,0,28.4,0z M9.3,26.2H4.7V11.6h4.5L9.3,26.2L9.3,26.2z M7,9.6C5.5,9.6,4.4,8.5,4.4,7S5.5,4.4,7,4.4S9.6,5.6,9.6,7l0,0
	C9.6,8.5,8.4,9.6,7,9.6z M26.3,26.2h-4.5v-7.1c0-1.7,0-3.9-2.4-3.9c-2.4,0-2.7,1.8-2.7,3.8v7.2h-4.5V11.6h4.4v2h0.1
	c0.9-1.5,2.5-2.4,4.3-2.4c4.6,0,5.4,3,5.4,7L26.3,26.2z"/>
</svg>
